<?xml version="1.0" encoding="UTF-8"?><svg id="svg2" xmlns="http://www.w3.org/2000/svg" viewBox="0 0 261.16 122.5"><defs><style>.cls-1{fill:#058190;}.cls-2{fill:#00808f;}.cls-3,.cls-4{fill:none;stroke-linecap:round;stroke-width:2px;}.cls-3,.cls-4,.cls-5{stroke:#000;}.cls-4{stroke-linejoin:round;}</style></defs><g id="layer1"><path id="path3790" class="cls-4" d="M66.94,90.39l14.15-31.29s12.45.43,8.41,7.02c-4.04,6.6-14.05,6.38-14.05,6.38"/><path id="path3792" class="cls-3" d="M80.66,71.77l8.51,9.26"/><path id="path3794" class="cls-4" d="M101.63,92.01l10.22-33.55,3.62,18.41,12.24-17.03-7.13,32.19"/><path id="path3794-8" class="cls-4" d="M123.84,91.99l9.05-32.51,4.68,17.88,12.24-17.03-6.94,31.71"/><path id="path3836" class="cls-3" d="M96.41,59.53s-7.56,16.71.43,17.13,10.32-16.71,10.32-16.71"/><path id="path3842" class="cls-4" d="M161.75,61.13l-8.35.11-4.68,20.75h9.1"/><path id="path3844" class="cls-3" d="M151.64,70.81h8.41"/><path id="path3848" class="cls-4" d="M160.77,84.72l5.18-21.69s8.22-1.31,8.87,3.94-3.2,7.4-3.2,7.4"/><path id="path3850" class="cls-4" d="M170.71,75.82l2.71,12.82"/><path id="path3874" class="cls-2" d="M113.53,108.81s9.73-8.67,27.37-7.15c17.64,1.52,15.2,8.82,37.1,5.32,0,0-5.48,6.67-21.29,2.89-14.34-3.43-22.81-6.23-35.58-1.37,0,0-.3,2.43,7.3,6.54-12.32-1.52-14.9-6.23-14.9-6.23h0Z"/><path id="path3876" class="cls-2" d="M140.29,102.43s2.58-3.34,13.38-3.8c0,0-4.71,1.67-4.87,5.63s-8.51-1.82-8.51-1.82Z"/><path id="path3878" class="cls-2" d="M139.53,116.42l6.39-.61s-2.74,2.89,1.52,6.69c0,0-5.47,0-7.91-6.08Z"/><path id="path3880" class="cls-2" d="M166.14,122.5s-7.6-3.8-7.75-13.68l7.3.46s-5.93,2.58.46,13.23h0Z"/><path id="path3882" class="cls-2" d="M147.13,35.07s6.39-4.11-26.76,12.32c-33.14,16.42,1.98-8.21,1.98-8.21l26.91-12.77-2.13,8.67Z"/><path id="path2996" class="cls-5" d="M189.96,69.84c-14.64-10.71-46.43-15.71-46.43-15.71-1.79-20.71,2.5-33.93,2.5-33.93-17.86,10-26.79,34.64-26.79,34.64-34.64-6.07-105,19.64-107.14,28.93-2.14,9.29,43.57,14.64,43.57,14.64,0,0-42.64-4.7-53.71-12.2-11.07-7.5,42.28-36.37,102.64-42.45,0,0,22.86-31.79,55.36-38.57,0,0-7.14,7.14-4.64,42.14,0,0,14.29,9.64,37.5,8.57,23.21-1.07,38.93-12.14,67.5-1.79,0,0-7.5,8.93-21.07,7.5,0,0-.36,4.64-14.29,5.71,0,0,2.86,8.57-7.14,10.71l-27.86-8.21Z"/><path id="path3778" class="cls-2" d="M166.46,75.37s22.77-19.58,54.91,5.32c0,0,17.24-10.43,30.86-2.77,0,0-15.32-.64-26.18,8.3,0,0,12.34,18.52,24.9,15.32,0,0-9.36,7.66-29.8-10.43-20.43-18.09-40.86-14.69-40.86-14.69,0,0,0,4.9,11.49,11.07,0,0-8.94,2.34-25.33-12.13Z"/><path id="path3905" class="cls-2" d="M100.86.76l-17.64,44.55s5.94-2.71,19.78-3.47l5.76-6.23s-11.24.88-15.35,1.64L108.16,0l-7.3.76Z"/><path class="cls-1" d="M180.14,40.55c-.41-3.8-.55-9.58-7.91-14.44,0,0,7.07-3.81,7.36-8.21.41-6.16-.27-9.73-6-12.01-5.73-2.28-10.5-1.67-10.5-1.67h0s-6.82,5.47-4.91,41.05c0,0,4.21,4.06,10.76,4.82,6.54.76,11.6-5.73,11.19-9.53ZM166.92,9.33s11.12,1.14,4.7,9.26c-6.42,8.13-7.91,6.64-7.91,6.64,0,0,.47-11.01,3.21-15.9ZM163.71,46.12s-.08-11.62-.16-16.77l5.64-1.75s4.15,5.68,4.54,10.22c.26,3-.24,6.47-10.03,8.3Z"/></g></svg>